# xmcd
#
# Track frame offsets:
#	150
#	12855
#	25286
#	40133
#	55565
#	66564
#	76082
#	87668
#	102694
#	112664
#
# Disc length: 1680 seconds
#
# Revision: 1
# Processed by: cddbd v1.5.1PL0 Copyright (c) Steve Scherf et al.
# Submitted via: audiograbber 1.83.01
#
DISCID=78068e0a
DTITLE=Various Artist - American Country Classics
DYEAR=2005
DGENRE=Country
TTITLE0=Charlie Rich - The Most Beautiful Girl
TTITLE1=Johnny Cash - Ring of Fire (Live)
TTITLE2=Jerry Lee Lewis - Cold Cold Heart
TTITLE3=Willie Nelson - Always On My Mind (Live)
TTITLE4=Conway Twitty - It's Only Make Believe
TTITLE5=Ned Miller - From A Jack To A King
TTITLE6=Don Gibson - Oh Lonsome Me
TTITLE7=Billy McGraw - Rhinestone Cowboy
TTITLE8=Jim Reeves - He'll Have To Go (Live)
TTITLE9=Charley Pride - Crystal Chandeliers (Live)
EXTD=
EXTT0=
EXTT1=
EXTT2=
EXTT3=
EXTT4=
EXTT5=
EXTT6=
EXTT7=
EXTT8=
EXTT9=
PLAYORDER=
